HIERARCHY
ROOT Pelvis
{

	OFFSET     0.000000     0.000000     0.000000
	CHANNELS 6 Xposition Yposition Zposition Zrotation Xrotation Yrotation
	JOINT LowerBack
	{

		OFFSET    -0.000691     0.176488     0.017766
		CHANNELS 3 Zrotation Xrotation Yrotation
		JOINT Chest
		{

			OFFSET    -0.002754     0.128976    -0.000512
			CHANNELS 3 Zrotation Xrotation Yrotation
			JOINT back3
			{

				OFFSET     0.002471     0.201657    -0.000850
				CHANNELS 3 Zrotation Xrotation Yrotation
				JOINT Neck
				{

					OFFSET     0.001840     0.072570     0.000595
					CHANNELS 3 Zrotation Xrotation Yrotation
					JOINT Head
					{

						OFFSET     0.003323     0.152818     0.030907
						CHANNELS 3 Zrotation Xrotation Yrotation
						JOINT joint7
						{

							OFFSET     0.000612     0.183936     0.002625
							CHANNELS 3 Zrotation Xrotation Yrotation
							End Site
							{
								OFFSET     0.000000     0.000000     0.018310
							}
						}

					}

				}

				JOINT LeftCollar
				{

					OFFSET     0.053456     0.093486     0.002205
					CHANNELS 3 Zrotation Xrotation Yrotation
					JOINT LeftShoulder
					{

						OFFSET     0.112884    -0.020868     0.002319
						CHANNELS 3 Zrotation Xrotation Yrotation
						JOINT LeftElbow
						{

							OFFSET     0.297302     0.003523    -0.020737
							CHANNELS 3 Zrotation Xrotation Yrotation
							JOINT LeftWrist
							{

								OFFSET     0.290007     0.004431    -0.007313
								CHANNELS 3 Zrotation Xrotation Yrotation
								JOINT lf_hand
								{

									OFFSET     0.117001    -0.002589    -0.008771
									CHANNELS 3 Zrotation Xrotation Yrotation
									End Site
									{
										OFFSET     0.000000    -0.009821     0.000000
									}
								}

							}

						}

					}

				}

				JOINT RightCollar
				{

					OFFSET    -0.048666     0.096092     0.000301
					CHANNELS 3 Zrotation Xrotation Yrotation
					JOINT RightShoulder
					{

						OFFSET    -0.115072    -0.022479    -0.001894
						CHANNELS 3 Zrotation Xrotation Yrotation
						JOINT RightElbow
						{

							OFFSET    -0.297072     0.004954    -0.020752
							CHANNELS 3 Zrotation Xrotation Yrotation
							JOINT RightWrist
							{

								OFFSET    -0.292425    -0.005826    -0.023258
								CHANNELS 3 Zrotation Xrotation Yrotation
								JOINT rt_hand
								{

									OFFSET    -0.118185    -0.001061    -0.015047
									CHANNELS 3 Zrotation Xrotation Yrotation
									End Site
									{
										OFFSET     0.000000    -0.009987     0.000000
									}
								}

							}

						}

					}

				}

			}

			JOINT joint13
			{

				OFFSET     0.125914     0.117470     0.000000
				CHANNELS 3 Zrotation Xrotation Yrotation
				End Site
				{
					OFFSET     0.000000     0.000000    -0.017144
				}
			}

			JOINT joint14
			{

				OFFSET    -0.120063     0.114907     0.000000
				CHANNELS 3 Zrotation Xrotation Yrotation
				End Site
				{
					OFFSET     0.000000     0.000000    -0.016479
				}
			}

		}

	}

	JOINT RightHip
	{

		OFFSET    -0.109283    -0.057257     0.000987
		CHANNELS 3 Zrotation Xrotation Yrotation
		JOINT RightKnee
		{

			OFFSET     0.002149    -0.429339     0.038617
			CHANNELS 3 Zrotation Xrotation Yrotation
			JOINT RightAnkle
			{

				OFFSET    -0.001765    -0.522522    -0.077092
				CHANNELS 3 Zrotation Xrotation Yrotation
				JOINT r_ball
				{

					OFFSET    -0.000000    -0.037315     0.142913
					CHANNELS 3 Zrotation Xrotation Yrotation
					End Site
					{
						OFFSET     0.000000     0.000000     0.014648
					}
				}

			}

		}

	}

	JOINT LeftHip
	{

		OFFSET     0.098180    -0.056757     0.003895
		CHANNELS 3 Zrotation Xrotation Yrotation
		JOINT LeftKnee
		{

			OFFSET     0.007057    -0.430531     0.035812
			CHANNELS 3 Zrotation Xrotation Yrotation
			JOINT LeftAnkle
			{

				OFFSET    -0.005475    -0.521755    -0.078136
				CHANNELS 3 Zrotation Xrotation Yrotation
				JOINT lf_ball
				{

					OFFSET     0.000065    -0.036737     0.143337
					CHANNELS 3 Zrotation Xrotation Yrotation
					End Site
					{
						OFFSET     0.000000     0.000000     0.014648
					}
				}

			}

		}

	}

}

MOTION
Frames: 8
Frame Time: 0.033333
    0.000000     0.933082     0.000000     5.018603    -6.439736  -130.351364    -1.494691    -8.663056     1.107584    -3.275867     4.710036    -0.201449     0.000000     0.000000     0.000000     0.000000     0.000000     0.000000    -0.094651   -15.889474    -4.322850     0.000000     0.000000     0.000000    11.311271    -0.784726    -3.944598   -92.799782     3.792826    25.165913     1.053818     1.967916   -56.334740     7.217393    -2.225830     9.421333     0.000000     0.000000     0.000000    -2.122344    -0.158553     4.399301    85.696251    15.900731   -24.310965    -1.354912     2.132374    64.860237    -3.722392    23.856789   -23.128523     0.000000     0.000000     0.000000     0.000000     0.000000     0.000000     0.000000     0.000000     0.000000     0.367317    -3.586621   -18.916597     0.000000     6.026310     0.000000    10.055319   -18.744253    -6.521655     0.000000     0.000000     0.000000    -4.666291    -6.466260    -0.340881     0.000000     6.762502     0.000000   -10.930016   -13.714327     0.784097     0.000000     0.000000     0.000000 
   -0.000814     0.932821     0.000558     5.082460    -6.353778  -130.612167    -1.623674    -8.629508     1.077318    -2.872233     4.637653    -0.142815     0.000000     0.000000     0.000000     0.000000     0.000000     0.000000    -0.344549   -16.051052    -4.196893     0.000000     0.000000     0.000000    11.274447    -0.827902    -4.109470   -92.970657     3.454413    24.689623     1.005803     1.937934   -54.856094     7.416650    -2.075277     5.017358     0.000000     0.000000     0.000000    -2.212650    -0.178473     4.525193    85.795830    15.470837   -24.317200    -1.357562     2.130717    65.001984    -3.742600    23.484529   -24.014149     0.000000     0.000000     0.000000     0.000000     0.000000     0.000000     0.000000     0.000000     0.000000     0.415489    -3.743119   -18.817850     0.000000     6.223048     0.000000    10.117248   -18.597160    -6.352325     0.000000     0.000000     0.000000    -4.626386    -6.462861    -0.254330     0.000000     6.896036     0.000000   -10.817336   -13.958422     0.973189     0.000000     0.000000     0.000000 
   -0.001916     0.932557     0.001305     5.188038    -6.249948  -130.927902    -1.738276    -8.601702     1.047973    -2.433446     4.557986    -0.078208     0.000000     0.000000     0.000000     0.000000     0.000000     0.000000    -0.530430   -16.163618    -4.132091     0.000000     0.000000     0.000000    11.222299    -0.849359    -4.275820   -93.160095     3.119099    24.218859     0.952140     1.894435   -53.364918     7.622874    -1.930831     0.598567     0.000000     0.000000     0.000000    -2.302945    -0.191430     4.643654    85.868950    15.026267   -24.338152    -1.363697     2.134819    65.136337    -3.775376    23.096519   -24.879601     0.000000     0.000000     0.000000     0.000000     0.000000     0.000000     0.000000     0.000000     0.000000     0.512043    -4.203069   -18.551371     0.000000     6.727580     0.000000    10.108788   -18.293800    -6.306806     0.000000     0.000000     0.000000    -4.562746    -6.564129     0.004700     0.000000     7.281419     0.000000   -10.712179   -14.198542     1.140751     0.000000     0.000000     0.000000 
   -0.003228     0.932287     0.002189     5.274048    -6.147221  -131.207077    -1.860002    -8.559944     1.018380    -2.057087     4.507394    -0.031064     0.000000     0.000000     0.000000     0.000000     0.000000     0.000000    -0.591230   -16.323187    -4.071437     0.000000     0.000000     0.000000    11.207138    -0.875093    -4.400115   -93.374870     2.841654    23.935759     0.915556     1.865795   -52.271812     7.791809    -1.857849    -2.454901     0.000000     0.000000     0.000000    -2.372636    -0.195848     4.720351    85.890373    14.774214   -24.233833    -1.369645     2.139328    65.252975    -3.817866    22.825781   -25.409891     0.000000     0.000000     0.000000     0.000000     0.000000     0.000000     0.000000     0.000000     0.000000     0.588853    -4.827981   -18.172323     0.000000     7.448983     0.000000    10.028948   -17.939852    -6.403416     0.000000     0.000000     0.000000    -4.548108    -6.712075     0.378379     0.000000     7.842235     0.000000   -10.650229   -14.327430     1.242848     0.000000     0.000000     0.000000 
   -0.004671     0.932006     0.003160     5.257217    -6.074020  -131.399353    -1.967494    -8.491283     0.997558    -1.826021     4.535322    -0.032713     0.000000     0.000000     0.000000     0.000000     0.000000     0.000000    -0.522418   -16.580391    -3.972147     0.000000     0.000000     0.000000    11.255622    -0.889432    -4.454800   -93.564674     2.620204    23.903488     0.901849     1.856949   -51.805149     7.719047    -1.842375    -3.179901     0.000000     0.000000     0.000000    -2.414547    -0.197721     4.727232    85.851624    14.835703   -23.856653    -1.370263     2.139100    65.281990    -3.815446    22.750723   -25.361052     0.000000     0.000000     0.000000     0.000000     0.000000     0.000000     0.000000     0.000000     0.000000     0.575147    -5.487390   -17.736351     0.000000     8.283888     0.000000     9.906300   -17.600599    -6.655635     0.000000     0.000000     0.000000    -4.627034    -6.871629     0.823386     0.000000     8.523186     0.000000   -10.635254   -14.264347     1.250549     0.000000     0.000000     0.000000 
   -0.006167     0.931789     0.004164     5.062752    -6.038773  -131.423386    -2.055907    -8.492157     1.032999    -1.804456     4.640381    -0.045913     0.000000     0.000000     0.000000     0.000000     0.000000     0.000000    -0.307704   -16.849184    -3.843852     0.000000     0.000000     0.000000    11.325718    -0.893540    -4.468171   -93.662537     2.482670    24.103275     0.897322     1.851098   -51.720688     7.600223    -1.868126    -2.569205     0.000000     0.000000     0.000000    -2.435906    -0.190709     4.685396    85.893333    15.072150   -23.389656    -1.370599     2.138742    65.303452    -3.818768    22.778654   -24.971323     0.000000     0.000000     0.000000     0.000000     0.000000     0.000000     0.000000     0.000000     0.000000     0.419237    -5.996017   -17.297277     0.000000     9.110745     0.000000     9.745393   -17.385881    -7.079982     0.000000     0.000000     0.000000    -4.862833    -6.950500     1.317972     0.000000     8.893994     0.000000   -10.707937   -13.930962     1.101975     0.000000     0.000000     0.000000 
   -0.007636     0.932617     0.005151     4.675417    -6.060150  -131.495697    -2.113846    -8.543218     1.097977    -1.922765     4.802125    -0.066425     0.000000     0.000000     0.000000     0.000000     0.000000     0.000000    -0.073580   -17.160677    -3.676442     0.000000     0.000000     0.000000    11.353642    -0.904399    -4.495251   -93.616310     2.374298    24.363031     0.896912     1.851415   -51.692444     7.950792    -1.835293    -2.180522     0.000000     0.000000     0.000000    -2.463436    -0.204630     4.629119    86.005516    15.347064   -22.952322    -1.377783     2.142427    65.486122    -3.905773    22.783737   -24.704149     0.000000     0.000000     0.000000     0.000000     0.000000     0.000000     0.000000     0.000000     0.000000     0.087906    -6.360483   -16.907326     0.000000     9.827661     0.000000     9.729656   -16.855333    -7.479306     0.000000     0.000000     0.000000    -5.219421    -7.006432     1.799347     0.000000     9.258865     0.000000   -10.888017   -12.904688     1.127347     0.000000     0.000000     0.000000 
   -0.009001     0.931796     0.006070     4.140771    -6.111757  -131.788391    -2.198162    -8.439021     1.107640    -2.114514     5.042334    -0.166015     0.000000     0.000000     0.000000     0.000000     0.000000     0.000000     0.138338   -17.717997    -3.292439     0.000000     0.000000     0.000000    11.228456    -0.878004    -4.421014   -93.256226     2.526146    24.434561     0.890483     1.846757   -51.482601     8.619974    -1.568600    -2.373265     0.000000     0.000000     0.000000    -2.443022    -0.194567     4.524491    86.016327    15.776284   -22.272549    -1.394095     2.148526    65.952408    -3.982688    22.708368   -24.840771     0.000000     0.000000     0.000000     0.000000     0.000000     0.000000     0.000000     0.000000     0.000000    -0.300305    -6.407810   -16.632769     0.000000    10.341349     0.000000     9.527382   -17.190062    -7.426550     0.000000     0.000000     0.000000    -5.685194    -6.925509     2.245421     0.000000     9.947361     0.000000   -10.949784   -12.511171     1.278070     0.000000     0.000000     0.000000 
